<?xml version="1.0" standalone="no"?>
<!DOCTYPE svg PUBLIC "-//W3C//DTD SVG 20010904//EN"
 "http://www.w3.org/TR/2001/REC-SVG-20010904/DTD/svg10.dtd">
<svg version="1.0" xmlns="http://www.w3.org/2000/svg"
 width="303.000000pt" height="303.000000pt" viewBox="0 0 303.000000 303.000000"
 preserveAspectRatio="xMidYMid meet">
<metadata>
Created by potrace 1.11, written by Peter Selinger 2001-2013
</metadata>
<g transform="translate(0.000000,303.000000) scale(0.100000,-0.100000)"
fill="#000000" stroke="none">
<path d="M509 2768 c-1 -2 -2 -603 -3 -1335 l-2 -1333 461 0 c426 0 463 2 500
19 22 10 50 30 63 43 46 51 48 78 47 643 -1 604 5 562 -89 608 -30 15 -57 27
-59 27 -2 0 -35 14 -72 31 l-68 31 98 40 c119 48 153 70 171 115 19 44 19 939
1 990 -17 47 -72 101 -115 113 -31 8 -929 16 -933 8z m821 -608 l0 -400 -120
-80 -119 -80 -175 0 -175 0 -1 480 0 480 295 0 295 0 0 -400z m-119 -846 c64
-41 119 -81 121 -87 3 -7 4 -214 4 -462 l-1 -450 -297 -3 -297 -2 0 540 -1
540 176 0 177 0 118 -76z"/>
<path d="M1804 1425 l0 -1335 428 0 428 0 0 105 0 105 -309 0 -310 0 0 1178
c0 647 0 1201 -1 1230 l0 52 -118 0 -118 0 0 -1335z"/>
</g>
</svg>
