<?xml version="1.0" encoding="utf-8"?>
<!-- Generator: Adobe Illustrator 23.1.1, SVG Export Plug-In . SVG Version: 6.00 Build 0)  -->
<svg version="1.1" id="Layer_1" xmlns="http://www.w3.org/2000/svg" xmlns:xlink="http://www.w3.org/1999/xlink" x="0px" y="0px"
	 viewBox="0 0 667.8 108.7" style="enable-background:new 0 0 667.8 108.7;" xml:space="preserve">
<style type="text/css">
	.st0{fill:#BE1E2D;}
	.st1{fill:none;stroke:#E6E7E8;stroke-width:4;stroke-linecap:round;stroke-linejoin:round;stroke-miterlimit:10;}
	.st2{fill:none;stroke:#FFFFFF;stroke-width:3.2723;stroke-miterlimit:10;}
	.st3{fill:#FFFFFF;}
	.st4{fill:none;stroke:#000000;stroke-width:4;stroke-linejoin:bevel;stroke-miterlimit:10;}
	.st5{fill:none;stroke:#8DC63F;stroke-width:4;stroke-linejoin:bevel;stroke-miterlimit:10;}
	.st6{fill:none;stroke:#8DC63F;stroke-width:4;stroke-miterlimit:10;}
	.st7{fill:none;stroke:#8DC63F;stroke-width:5;stroke-linejoin:bevel;stroke-miterlimit:10;}
	.st8{fill:none;stroke:#8DC63F;stroke-width:5;stroke-miterlimit:10;}
	.st9{fill:#2869A0;}
	.st10{fill:none;stroke:#A7A9AC;stroke-width:4;stroke-linecap:round;stroke-linejoin:round;stroke-miterlimit:10;}
	.st11{fill:#F15A29;stroke:#FFFFFF;stroke-width:2;stroke-miterlimit:10;}
	.st12{fill:none;stroke:#000000;stroke-width:5;stroke-linecap:round;stroke-miterlimit:10;}
	.st13{fill:none;stroke:#000000;stroke-width:4;stroke-linecap:round;stroke-linejoin:round;stroke-miterlimit:10;}
	.st14{fill:#8DC63F;}
	.st15{fill:#D1D3D4;}
	.st16{fill:#485768;}
	.st17{fill:#60C7CD;}
</style>
<g>
	<path class="st16" d="M17.6,24h27.8c16.2,0,26,9.6,26,23.5v0.2c0,15.7-12.2,23.9-27.5,23.9H32.6V92h-15V24z M44.4,58.3
		c7.5,0,11.8-4.5,11.8-10.3v-0.2c0-6.7-4.7-10.3-12.1-10.3H32.6v20.8H44.4z"/>
	<path class="st16" d="M160.6,24h31.1c8.6,0,15.3,2.4,19.8,6.9c3.8,3.8,5.8,9.1,5.8,15.5v0.2c0,11-5.9,17.9-14.6,21.1L219.3,92
		h-17.5l-14.6-21.8h-11.8V92h-15V24z M190.7,57c7.3,0,11.5-3.9,11.5-9.6v-0.2c0-6.4-4.5-9.7-11.8-9.7h-14.9V57H190.7z"/>
	<path class="st16" d="M234.2,82.1l8.8-10.6c6.1,5.1,12.5,8.3,20.3,8.3c6.1,0,9.8-2.4,9.8-6.4v-0.2c0-3.8-2.3-5.7-13.7-8.6
		c-13.7-3.5-22.5-7.3-22.5-20.8v-0.2c0-12.3,9.9-20.5,23.8-20.5c9.9,0,18.4,3.1,25.3,8.6l-7.8,11.3c-6-4.2-11.9-6.7-17.7-6.7
		c-5.7,0-8.7,2.6-8.7,5.9v0.2c0,4.5,2.9,5.9,14.7,8.9c13.8,3.6,21.6,8.5,21.6,20.4v0.2c0,13.5-10.3,21.1-25,21.1
		C252.7,93,242.3,89.4,234.2,82.1z"/>
	<path class="st16" d="M373.3,24h16.5l17.8,47.9L425.4,24h16.1L414,92.5h-13.2L373.3,24z"/>
	<path class="st16" d="M525,24H556c8.6,0,15.3,2.4,19.8,6.9c3.8,3.8,5.8,9.1,5.8,15.5v0.2c0,11-5.9,17.9-14.6,21.1L583.7,92h-17.5
		l-14.6-21.8h-11.8V92h-15V24z M555.1,57c7.3,0,11.5-3.9,11.5-9.6v-0.2c0-6.4-4.5-9.7-11.8-9.7h-14.9V57H555.1z"/>
</g>
<polygon class="st17" points="109.2,29.1 142.4,46.8 142.4,33.2 109.2,15.5 "/>
<polygon class="st17" points="80.9,74.2 114.1,92 114.1,78.4 80.9,60.6 "/>
<polygon class="st17" points="94.7,51.7 127.9,69.4 127.9,55.8 94.7,38.1 "/>
<rect x="306.9" y="24" class="st16" width="51.8" height="13.6"/>
<rect x="306.9" y="78.4" class="st16" width="51.8" height="13.6"/>
<rect x="306.9" y="51.2" class="st16" width="51.8" height="13.6"/>
<rect x="454.5" y="24" class="st16" width="51.8" height="13.6"/>
<rect x="454.5" y="78.4" class="st16" width="51.8" height="13.6"/>
<rect x="454.5" y="51.2" class="st16" width="51.8" height="13.6"/>
<rect x="602.2" y="24" class="st16" width="51.8" height="13.6"/>
<rect x="602.2" y="78.4" class="st16" width="51.8" height="13.6"/>
<rect x="602.2" y="51.2" class="st16" width="51.8" height="13.6"/>
</svg>
